<mxfile host="app.diagrams.net" modified="2022-01-19T14:36:33.636Z" agent="5.0 (Windows NT 10.0; Win64; x64) AppleWebKit/537.36 (KHTML, like Gecko) Chrome/97.0.4692.71 Safari/537.36" etag="73pyh3CyytRvbsXNAymo" version="16.1.2" type="github">
  <diagram id="7LCxggx-xL5ZCKPdke5P" name="Page-1">
    <mxGraphModel dx="1422" dy="786" grid="1" gridSize="10" guides="1" tooltips="1" connect="1" arrows="1" fold="1" page="1" pageScale="1" pageWidth="850" pageHeight="1100" math="0" shadow="0">
      <root>
        <mxCell id="0" />
        <mxCell id="1" parent="0" />
        <mxCell id="vSs9vctSM6e41PIUmZnF-2" value="" style="rounded=0;whiteSpace=wrap;html=1;fillColor=#003333;" vertex="1" parent="1">
          <mxGeometry x="50" y="300" width="770" height="420" as="geometry" />
        </mxCell>
        <mxCell id="vSs9vctSM6e41PIUmZnF-13" value="" style="shape=process;whiteSpace=wrap;html=1;backgroundOutline=1;fontColor=#66B2FF;fillColor=#003333;strokeColor=#FFF352;strokeWidth=1;sketch=1;" vertex="1" parent="1">
          <mxGeometry x="70" y="425" width="720" height="205" as="geometry" />
        </mxCell>
        <mxCell id="vSs9vctSM6e41PIUmZnF-3" value="GameOfChance.Domain&lt;br&gt;(Business)" style="rounded=0;whiteSpace=wrap;html=1;fillColor=#003333;fontStyle=1;fontColor=#66B2FF;" vertex="1" parent="1">
          <mxGeometry x="355" y="560" width="170" height="60" as="geometry" />
        </mxCell>
        <mxCell id="vSs9vctSM6e41PIUmZnF-4" value="GameOfChance.Infrastucture&lt;br&gt;(inc. data access)" style="rounded=0;whiteSpace=wrap;html=1;fillColor=#003333;fontStyle=1;fontColor=#66B2FF;" vertex="1" parent="1">
          <mxGeometry x="100" y="450" width="180" height="60" as="geometry" />
        </mxCell>
        <mxCell id="vSs9vctSM6e41PIUmZnF-5" value="GameOfChance.Client&lt;br&gt;(Services)" style="rounded=0;whiteSpace=wrap;html=1;fillColor=#003333;fontStyle=1;fontColor=#66B2FF;" vertex="1" parent="1">
          <mxGeometry x="350" y="450" width="180" height="60" as="geometry" />
        </mxCell>
        <mxCell id="vSs9vctSM6e41PIUmZnF-6" value="GameOfChance.Api&lt;br&gt;(REST Api)" style="rounded=0;whiteSpace=wrap;html=1;fillColor=#003333;fontStyle=1;fontColor=#66B2FF;" vertex="1" parent="1">
          <mxGeometry x="600" y="450" width="180" height="60" as="geometry" />
        </mxCell>
        <mxCell id="vSs9vctSM6e41PIUmZnF-7" value="" style="endArrow=classic;html=1;rounded=0;fontColor=#66B2FF;entryX=0.5;entryY=1;entryDx=0;entryDy=0;strokeColor=#FFF352;" edge="1" parent="1" source="vSs9vctSM6e41PIUmZnF-3" target="vSs9vctSM6e41PIUmZnF-5">
          <mxGeometry width="50" height="50" relative="1" as="geometry">
            <mxPoint x="400" y="430" as="sourcePoint" />
            <mxPoint x="450" y="380" as="targetPoint" />
          </mxGeometry>
        </mxCell>
        <mxCell id="vSs9vctSM6e41PIUmZnF-8" value="" style="endArrow=classic;html=1;rounded=0;fontColor=#66B2FF;entryX=0.5;entryY=1;entryDx=0;entryDy=0;strokeColor=#FFF352;" edge="1" parent="1" source="vSs9vctSM6e41PIUmZnF-3" target="vSs9vctSM6e41PIUmZnF-4">
          <mxGeometry width="50" height="50" relative="1" as="geometry">
            <mxPoint x="450" y="570" as="sourcePoint" />
            <mxPoint x="450" y="520" as="targetPoint" />
          </mxGeometry>
        </mxCell>
        <mxCell id="vSs9vctSM6e41PIUmZnF-9" value="" style="endArrow=classic;html=1;rounded=0;fontColor=#66B2FF;entryX=0.5;entryY=1;entryDx=0;entryDy=0;strokeColor=#FFF352;exitX=1;exitY=0;exitDx=0;exitDy=0;" edge="1" parent="1" source="vSs9vctSM6e41PIUmZnF-3" target="vSs9vctSM6e41PIUmZnF-6">
          <mxGeometry width="50" height="50" relative="1" as="geometry">
            <mxPoint x="745" y="572.8" as="sourcePoint" />
            <mxPoint x="580" y="520" as="targetPoint" />
          </mxGeometry>
        </mxCell>
        <mxCell id="vSs9vctSM6e41PIUmZnF-10" value="" style="endArrow=classic;html=1;rounded=0;fontColor=#66B2FF;entryX=0;entryY=0.5;entryDx=0;entryDy=0;strokeColor=#FFF352;exitX=1;exitY=0.5;exitDx=0;exitDy=0;" edge="1" parent="1" source="vSs9vctSM6e41PIUmZnF-4" target="vSs9vctSM6e41PIUmZnF-5">
          <mxGeometry width="50" height="50" relative="1" as="geometry">
            <mxPoint x="375" y="582.8" as="sourcePoint" />
            <mxPoint x="210" y="530" as="targetPoint" />
          </mxGeometry>
        </mxCell>
        <mxCell id="vSs9vctSM6e41PIUmZnF-11" value="" style="endArrow=classic;html=1;rounded=0;fontColor=#66B2FF;entryX=0;entryY=0.5;entryDx=0;entryDy=0;strokeColor=#FFF352;exitX=1;exitY=0.5;exitDx=0;exitDy=0;" edge="1" parent="1">
          <mxGeometry width="50" height="50" relative="1" as="geometry">
            <mxPoint x="530" y="479.5" as="sourcePoint" />
            <mxPoint x="600" y="479.5" as="targetPoint" />
          </mxGeometry>
        </mxCell>
        <mxCell id="vSs9vctSM6e41PIUmZnF-12" value="GameOfChance.Tests" style="rounded=0;whiteSpace=wrap;html=1;fillColor=#003333;fontStyle=1;fontColor=#66B2FF;" vertex="1" parent="1">
          <mxGeometry x="600" y="350" width="180" height="60" as="geometry" />
        </mxCell>
        <mxCell id="vSs9vctSM6e41PIUmZnF-14" value="DB" style="strokeWidth=2;html=1;shape=mxgraph.flowchart.database;whiteSpace=wrap;fontColor=#66B2FF;fillColor=#003333;strokeColor=#A680B8;" vertex="1" parent="1">
          <mxGeometry x="150" y="560" width="60" height="60" as="geometry" />
        </mxCell>
        <mxCell id="vSs9vctSM6e41PIUmZnF-15" value="" style="endArrow=classic;html=1;rounded=0;fontColor=#66B2FF;entryX=0.45;entryY=1.033;entryDx=0;entryDy=0;strokeColor=#FFF352;exitX=0.5;exitY=0;exitDx=0;exitDy=0;exitPerimeter=0;entryPerimeter=0;" edge="1" parent="1" source="vSs9vctSM6e41PIUmZnF-14" target="vSs9vctSM6e41PIUmZnF-4">
          <mxGeometry width="50" height="50" relative="1" as="geometry">
            <mxPoint x="290" y="490" as="sourcePoint" />
            <mxPoint x="360" y="490" as="targetPoint" />
          </mxGeometry>
        </mxCell>
      </root>
    </mxGraphModel>
  </diagram>
</mxfile>
